<?xml version="1.0" encoding="UTF-8" standalone="no"?>
<!DOCTYPE svg PUBLIC "-//W3C//DTD SVG 1.1//EN"
 "http://www.w3.org/Graphics/SVG/1.1/DTD/svg11.dtd">
<!-- Generated by graphviz version 7.1.0 (20230121.1956)
 -->
<!-- Pages: 1 -->
<svg width="646pt" height="796pt"
 viewBox="0.00 0.00 646.00 796.00" xmlns="http://www.w3.org/2000/svg" xmlns:xlink="http://www.w3.org/1999/xlink">
<g id="graph0" class="graph" transform="scale(1 1) rotate(0) translate(4 792)">
<polygon fill="white" stroke="none" points="-4,4 -4,-792 642,-792 642,4 -4,4"/>
<!-- 3 -->
<g id="node1" class="node">
<title>3</title>
<g id="a_node1"><a xlink:title="/usr/local/anaconda3/envs/pytest_plugins_example_venv/lib/python3.10/site&#45;packages/pluggy/_callers.py">
<polygon fill="#ff0100" stroke="#ff0100" points="359,-512 256,-512 256,-460 359,-460 359,-512"/>
<text text-anchor="middle" x="307.5" y="-500" font-family="Arial" font-size="10.00" fill="#ffffff">_callers:9:_multicall</text>
<text text-anchor="middle" x="307.5" y="-489" font-family="Arial" font-size="10.00" fill="#ffffff">99.95%</text>
<text text-anchor="middle" x="307.5" y="-478" font-family="Arial" font-size="10.00" fill="#ffffff">(0.02%)</text>
<text text-anchor="middle" x="307.5" y="-467" font-family="Arial" font-size="10.00" fill="#ffffff">53×</text>
</a>
</g>
</g>
<!-- 133 -->
<g id="node2" class="node">
<title>133</title>
<g id="a_node2"><a xlink:title="/usr/local/anaconda3/envs/pytest_plugins_example_venv/lib/python3.10/site&#45;packages/_pytest/python.py">
<polygon fill="#ff0300" stroke="#ff0300" points="520,-420 371,-420 371,-368 520,-368 520,-420"/>
<text text-anchor="middle" x="445.5" y="-408" font-family="Arial" font-size="10.00" fill="#ffffff">python:188:pytest_pyfunc_call</text>
<text text-anchor="middle" x="445.5" y="-397" font-family="Arial" font-size="10.00" fill="#ffffff">99.69%</text>
<text text-anchor="middle" x="445.5" y="-386" font-family="Arial" font-size="10.00" fill="#ffffff">(0.00%)</text>
<text text-anchor="middle" x="445.5" y="-375" font-family="Arial" font-size="10.00" fill="#ffffff">4×</text>
</a>
</g>
</g>
<!-- 3&#45;&gt;133 -->
<g id="edge1" class="edge">
<title>3&#45;&gt;133</title>
<path fill="none" stroke="#ff0300" stroke-width="3.99" d="M346.31,-459.69C360.86,-450.2 377.64,-439.25 393.22,-429.1"/>
<polygon fill="#ff0300" stroke="#ff0300" stroke-width="3.99" points="394.98,-432.12 401.45,-423.73 391.16,-426.26 394.98,-432.12"/>
<text text-anchor="middle" x="409.5" y="-443" font-family="Arial" font-size="10.00" fill="#ff0300">99.69%</text>
<text text-anchor="middle" x="409.5" y="-432" font-family="Arial" font-size="10.00" fill="#ff0300">4×</text>
</g>
<!-- 379 -->
<g id="node3" class="node">
<title>379</title>
<g id="a_node3"><a xlink:title="/usr/local/anaconda3/envs/pytest_plugins_example_venv/lib/python3.10/site&#45;packages/_pytest/runner.py">
<polygon fill="#ff0300" stroke="#ff0300" points="293.5,-420 145.5,-420 145.5,-368 293.5,-368 293.5,-420"/>
<text text-anchor="middle" x="219.5" y="-408" font-family="Arial" font-size="10.00" fill="#ffffff">runner:158:pytest_runtest_call</text>
<text text-anchor="middle" x="219.5" y="-397" font-family="Arial" font-size="10.00" fill="#ffffff">99.69%</text>
<text text-anchor="middle" x="219.5" y="-386" font-family="Arial" font-size="10.00" fill="#ffffff">(0.00%)</text>
<text text-anchor="middle" x="219.5" y="-375" font-family="Arial" font-size="10.00" fill="#ffffff">4×</text>
</a>
</g>
</g>
<!-- 3&#45;&gt;379 -->
<g id="edge2" class="edge">
<title>3&#45;&gt;379</title>
<path fill="none" stroke="#ff0300" stroke-width="3.99" d="M275.65,-459.57C272.49,-456.76 269.39,-453.87 266.5,-451 260.69,-445.22 254.81,-438.79 249.28,-432.41"/>
<polygon fill="#ff0300" stroke="#ff0300" stroke-width="3.99" points="252.17,-430.41 243.06,-425 246.81,-434.91 252.17,-430.41"/>
<text text-anchor="middle" x="283.5" y="-443" font-family="Arial" font-size="10.00" fill="#ff0300">99.69%</text>
<text text-anchor="middle" x="283.5" y="-432" font-family="Arial" font-size="10.00" fill="#ff0300">4×</text>
</g>
<!-- 437 -->
<g id="node10" class="node">
<title>437</title>
<g id="a_node10"><a xlink:title="/Users/ericsda/PycharmProjects/Personal/pytest&#45;plugins&#45;example/tests/unit/test_string_transform.py">
<polygon fill="#fe0400" stroke="#fe0400" points="638,-328 351,-328 351,-276 638,-276 638,-328"/>
<text text-anchor="middle" x="494.5" y="-316" font-family="Arial" font-size="10.00" fill="#ffffff">test_string_transform:31:test_remove_spaces_in_string_delay</text>
<text text-anchor="middle" x="494.5" y="-305" font-family="Arial" font-size="10.00" fill="#ffffff">99.64%</text>
<text text-anchor="middle" x="494.5" y="-294" font-family="Arial" font-size="10.00" fill="#ffffff">(0.00%)</text>
<text text-anchor="middle" x="494.5" y="-283" font-family="Arial" font-size="10.00" fill="#ffffff">1×</text>
</a>
</g>
</g>
<!-- 133&#45;&gt;437 -->
<g id="edge6" class="edge">
<title>133&#45;&gt;437</title>
<path fill="none" stroke="#fe0400" stroke-width="3.99" d="M459.15,-367.93C463.52,-359.9 468.47,-350.82 473.25,-342.04"/>
<polygon fill="#fe0400" stroke="#fe0400" stroke-width="3.99" points="476.16,-344.01 477.87,-333.55 470.01,-340.66 476.16,-344.01"/>
<text text-anchor="middle" x="492.5" y="-351" font-family="Arial" font-size="10.00" fill="#fe0400">99.64%</text>
<text text-anchor="middle" x="492.5" y="-340" font-family="Arial" font-size="10.00" fill="#fe0400">1×</text>
</g>
<!-- 325 -->
<g id="node15" class="node">
<title>325</title>
<g id="a_node15"><a xlink:title="/usr/local/anaconda3/envs/pytest_plugins_example_venv/lib/python3.10/site&#45;packages/_pytest/python.py">
<polygon fill="#ff0300" stroke="#ff0300" points="271,-328 168,-328 168,-276 271,-276 271,-328"/>
<text text-anchor="middle" x="219.5" y="-316" font-family="Arial" font-size="10.00" fill="#ffffff">python:1787:runtest</text>
<text text-anchor="middle" x="219.5" y="-305" font-family="Arial" font-size="10.00" fill="#ffffff">99.69%</text>
<text text-anchor="middle" x="219.5" y="-294" font-family="Arial" font-size="10.00" fill="#ffffff">(0.00%)</text>
<text text-anchor="middle" x="219.5" y="-283" font-family="Arial" font-size="10.00" fill="#ffffff">4×</text>
</a>
</g>
</g>
<!-- 379&#45;&gt;325 -->
<g id="edge14" class="edge">
<title>379&#45;&gt;325</title>
<path fill="none" stroke="#ff0300" stroke-width="3.99" d="M219.5,-367.93C219.5,-360.58 219.5,-352.34 219.5,-344.26"/>
<polygon fill="#ff0300" stroke="#ff0300" stroke-width="3.99" points="223,-344.29 219.5,-334.29 216,-344.29 223,-344.29"/>
<text text-anchor="middle" x="236.5" y="-351" font-family="Arial" font-size="10.00" fill="#ff0300">99.69%</text>
<text text-anchor="middle" x="236.5" y="-340" font-family="Arial" font-size="10.00" fill="#ff0300">4×</text>
</g>
<!-- 16 -->
<g id="node4" class="node">
<title>16</title>
<g id="a_node4"><a xlink:title="/usr/local/anaconda3/envs/pytest_plugins_example_venv/lib/python3.10/site&#45;packages/_pytest/runner.py">
<polygon fill="#ff0000" stroke="#ff0000" points="148,-696 19,-696 19,-644 148,-644 148,-696"/>
<text text-anchor="middle" x="83.5" y="-684" font-family="Arial" font-size="10.00" fill="#ffffff">runner:117:runtestprotocol</text>
<text text-anchor="middle" x="83.5" y="-673" font-family="Arial" font-size="10.00" fill="#ffffff">99.97%</text>
<text text-anchor="middle" x="83.5" y="-662" font-family="Arial" font-size="10.00" fill="#ffffff">(0.00%)</text>
<text text-anchor="middle" x="83.5" y="-651" font-family="Arial" font-size="10.00" fill="#ffffff">4×</text>
</a>
</g>
</g>
<!-- 323 -->
<g id="node5" class="node">
<title>323</title>
<g id="a_node5"><a xlink:title="/usr/local/anaconda3/envs/pytest_plugins_example_venv/lib/python3.10/site&#45;packages/_pytest/runner.py">
<polygon fill="#ff0000" stroke="#ff0000" points="149,-604 18,-604 18,-552 149,-552 149,-604"/>
<text text-anchor="middle" x="83.5" y="-592" font-family="Arial" font-size="10.00" fill="#ffffff">runner:217:call_and_report</text>
<text text-anchor="middle" x="83.5" y="-581" font-family="Arial" font-size="10.00" fill="#ffffff">99.97%</text>
<text text-anchor="middle" x="83.5" y="-570" font-family="Arial" font-size="10.00" fill="#ffffff">(0.00%)</text>
<text text-anchor="middle" x="83.5" y="-559" font-family="Arial" font-size="10.00" fill="#ffffff">12×</text>
</a>
</g>
</g>
<!-- 16&#45;&gt;323 -->
<g id="edge3" class="edge">
<title>16&#45;&gt;323</title>
<path fill="none" stroke="#ff0000" stroke-width="4" d="M83.5,-643.93C83.5,-636.58 83.5,-628.34 83.5,-620.26"/>
<polygon fill="#ff0000" stroke="#ff0000" stroke-width="4" points="87,-620.3 83.5,-610.3 80,-620.3 87,-620.3"/>
<text text-anchor="middle" x="100.5" y="-627" font-family="Arial" font-size="10.00" fill="#ff0000">99.97%</text>
<text text-anchor="middle" x="100.5" y="-616" font-family="Arial" font-size="10.00" fill="#ff0000">12×</text>
</g>
<!-- 343 -->
<g id="node14" class="node">
<title>343</title>
<g id="a_node14"><a xlink:title="/usr/local/anaconda3/envs/pytest_plugins_example_venv/lib/python3.10/site&#45;packages/_pytest/runner.py">
<polygon fill="#ff0100" stroke="#ff0100" points="154.5,-512 12.5,-512 12.5,-460 154.5,-460 154.5,-512"/>
<text text-anchor="middle" x="83.5" y="-500" font-family="Arial" font-size="10.00" fill="#ffffff">runner:245:call_runtest_hook</text>
<text text-anchor="middle" x="83.5" y="-489" font-family="Arial" font-size="10.00" fill="#ffffff">99.87%</text>
<text text-anchor="middle" x="83.5" y="-478" font-family="Arial" font-size="10.00" fill="#ffffff">(0.00%)</text>
<text text-anchor="middle" x="83.5" y="-467" font-family="Arial" font-size="10.00" fill="#ffffff">12×</text>
</a>
</g>
</g>
<!-- 323&#45;&gt;343 -->
<g id="edge10" class="edge">
<title>323&#45;&gt;343</title>
<path fill="none" stroke="#ff0100" stroke-width="3.99" d="M83.5,-551.93C83.5,-544.58 83.5,-536.34 83.5,-528.26"/>
<polygon fill="#ff0100" stroke="#ff0100" stroke-width="3.99" points="87,-528.29 83.5,-518.29 80,-528.29 87,-528.29"/>
<text text-anchor="middle" x="100.5" y="-535" font-family="Arial" font-size="10.00" fill="#ff0100">99.87%</text>
<text text-anchor="middle" x="100.5" y="-524" font-family="Arial" font-size="10.00" fill="#ff0100">12×</text>
</g>
<!-- 43 -->
<g id="node6" class="node">
<title>43</title>
<g id="a_node6"><a xlink:title="/usr/local/anaconda3/envs/pytest_plugins_example_venv/lib/python3.10/site&#45;packages/pluggy/_hooks.py">
<polygon fill="#ff0000" stroke="#ff0000" points="272.5,-236 166.5,-236 166.5,-184 272.5,-184 272.5,-236"/>
<text text-anchor="middle" x="219.5" y="-224" font-family="Arial" font-size="10.00" fill="#ffffff">_hooks:244:__call__</text>
<text text-anchor="middle" x="219.5" y="-213" font-family="Arial" font-size="10.00" fill="#ffffff">99.95%</text>
<text text-anchor="middle" x="219.5" y="-202" font-family="Arial" font-size="10.00" fill="#ffffff">(0.00%)</text>
<text text-anchor="middle" x="219.5" y="-191" font-family="Arial" font-size="10.00" fill="#ffffff">53×</text>
</a>
</g>
</g>
<!-- 316 -->
<g id="node7" class="node">
<title>316</title>
<g id="a_node7"><a xlink:title="/usr/local/anaconda3/envs/pytest_plugins_example_venv/lib/python3.10/site&#45;packages/pluggy/_manager.py">
<polygon fill="#ff0100" stroke="#ff0100" points="336,-144 213,-144 213,-92 336,-92 336,-144"/>
<text text-anchor="middle" x="274.5" y="-132" font-family="Arial" font-size="10.00" fill="#ffffff">_manager:77:_hookexec</text>
<text text-anchor="middle" x="274.5" y="-121" font-family="Arial" font-size="10.00" fill="#ffffff">99.95%</text>
<text text-anchor="middle" x="274.5" y="-110" font-family="Arial" font-size="10.00" fill="#ffffff">(0.00%)</text>
<text text-anchor="middle" x="274.5" y="-99" font-family="Arial" font-size="10.00" fill="#ffffff">53×</text>
</a>
</g>
</g>
<!-- 43&#45;&gt;316 -->
<g id="edge4" class="edge">
<title>43&#45;&gt;316</title>
<path fill="none" stroke="#ff0100" stroke-width="4" d="M234.82,-183.93C239.79,-175.81 245.41,-166.6 250.84,-157.72"/>
<polygon fill="#ff0100" stroke="#ff0100" stroke-width="4" points="253.69,-159.77 255.91,-149.41 247.71,-156.12 253.69,-159.77"/>
<text text-anchor="middle" x="270.5" y="-167" font-family="Arial" font-size="10.00" fill="#ff0100">99.95%</text>
<text text-anchor="middle" x="270.5" y="-156" font-family="Arial" font-size="10.00" fill="#ff0100">44×</text>
</g>
<!-- 316&#45;&gt;3 -->
<g id="edge9" class="edge">
<title>316&#45;&gt;3</title>
<path fill="none" stroke="#ff0100" stroke-width="4" d="M289.26,-144.48C298.05,-162.03 307.5,-186.2 307.5,-209 307.5,-395 307.5,-395 307.5,-395 307.5,-411.06 307.5,-428.74 307.5,-444.15"/>
<polygon fill="#ff0100" stroke="#ff0100" stroke-width="4" points="304,-443.73 307.5,-453.73 311,-443.73 304,-443.73"/>
<text text-anchor="middle" x="324.5" y="-305" font-family="Arial" font-size="10.00" fill="#ff0100">99.95%</text>
<text text-anchor="middle" x="324.5" y="-294" font-family="Arial" font-size="10.00" fill="#ff0100">44×</text>
</g>
<!-- 79 -->
<g id="node8" class="node">
<title>79</title>
<g id="a_node8"><a xlink:title="/Users/ericsda/PycharmProjects/Personal/pytest&#45;plugins&#45;example/string_transformations/core.py">
<polygon fill="#fe0400" stroke="#fe0400" points="576,-236 413,-236 413,-184 576,-184 576,-236"/>
<text text-anchor="middle" x="494.5" y="-224" font-family="Arial" font-size="10.00" fill="#ffffff">core:18:remove_spaces_in_string</text>
<text text-anchor="middle" x="494.5" y="-213" font-family="Arial" font-size="10.00" fill="#ffffff">99.64%</text>
<text text-anchor="middle" x="494.5" y="-202" font-family="Arial" font-size="10.00" fill="#ffffff">(0.00%)</text>
<text text-anchor="middle" x="494.5" y="-191" font-family="Arial" font-size="10.00" fill="#ffffff">7×</text>
</a>
</g>
</g>
<!-- 435 -->
<g id="node9" class="node">
<title>435</title>
<g id="a_node9"><a xlink:title="/Users/ericsda/PycharmProjects/Personal/pytest&#45;plugins&#45;example/string_transformations/core.py">
<polygon fill="#fe0400" stroke="#fe0400" points="532,-144 457,-144 457,-92 532,-92 532,-144"/>
<text text-anchor="middle" x="494.5" y="-132" font-family="Arial" font-size="10.00" fill="#ffffff">core:29:delay</text>
<text text-anchor="middle" x="494.5" y="-121" font-family="Arial" font-size="10.00" fill="#ffffff">99.64%</text>
<text text-anchor="middle" x="494.5" y="-110" font-family="Arial" font-size="10.00" fill="#ffffff">(0.00%)</text>
<text text-anchor="middle" x="494.5" y="-99" font-family="Arial" font-size="10.00" fill="#ffffff">6×</text>
</a>
</g>
</g>
<!-- 79&#45;&gt;435 -->
<g id="edge5" class="edge">
<title>79&#45;&gt;435</title>
<path fill="none" stroke="#fe0400" stroke-width="3.99" d="M494.5,-183.93C494.5,-176.58 494.5,-168.34 494.5,-160.26"/>
<polygon fill="#fe0400" stroke="#fe0400" stroke-width="3.99" points="498,-160.29 494.5,-150.29 491,-160.29 498,-160.29"/>
<text text-anchor="middle" x="511.5" y="-167" font-family="Arial" font-size="10.00" fill="#fe0400">99.64%</text>
<text text-anchor="middle" x="511.5" y="-156" font-family="Arial" font-size="10.00" fill="#fe0400">6×</text>
</g>
<!-- 434 -->
<g id="node16" class="node">
<title>434</title>
<g id="a_node16"><a xlink:title="~">
<polygon fill="#fe0400" stroke="#fe0400" points="573.5,-52 415.5,-52 415.5,0 573.5,0 573.5,-52"/>
<text text-anchor="middle" x="494.5" y="-40" font-family="Arial" font-size="10.00" fill="#ffffff">~:0:&lt;built&#45;in method time.sleep&gt;</text>
<text text-anchor="middle" x="494.5" y="-29" font-family="Arial" font-size="10.00" fill="#ffffff">99.64%</text>
<text text-anchor="middle" x="494.5" y="-18" font-family="Arial" font-size="10.00" fill="#ffffff">(99.64%)</text>
<text text-anchor="middle" x="494.5" y="-7" font-family="Arial" font-size="10.00" fill="#ffffff">6×</text>
</a>
</g>
</g>
<!-- 435&#45;&gt;434 -->
<g id="edge15" class="edge">
<title>435&#45;&gt;434</title>
<path fill="none" stroke="#fe0400" stroke-width="3.99" d="M494.5,-91.93C494.5,-84.58 494.5,-76.34 494.5,-68.26"/>
<polygon fill="#fe0400" stroke="#fe0400" stroke-width="3.99" points="498,-68.29 494.5,-58.29 491,-68.29 498,-68.29"/>
<text text-anchor="middle" x="511.5" y="-75" font-family="Arial" font-size="10.00" fill="#fe0400">99.64%</text>
<text text-anchor="middle" x="511.5" y="-64" font-family="Arial" font-size="10.00" fill="#fe0400">6×</text>
</g>
<!-- 437&#45;&gt;79 -->
<g id="edge16" class="edge">
<title>437&#45;&gt;79</title>
<path fill="none" stroke="#fe0400" stroke-width="3.99" d="M494.5,-275.93C494.5,-268.58 494.5,-260.34 494.5,-252.26"/>
<polygon fill="#fe0400" stroke="#fe0400" stroke-width="3.99" points="498,-252.29 494.5,-242.29 491,-252.29 498,-252.29"/>
<text text-anchor="middle" x="511.5" y="-259" font-family="Arial" font-size="10.00" fill="#fe0400">99.64%</text>
<text text-anchor="middle" x="511.5" y="-248" font-family="Arial" font-size="10.00" fill="#fe0400">3×</text>
</g>
<!-- 234 -->
<g id="node11" class="node">
<title>234</title>
<g id="a_node11"><a xlink:title="/usr/local/anaconda3/envs/pytest_plugins_example_venv/lib/python3.10/site&#45;packages/_pytest/runner.py">
<polygon fill="#ff0100" stroke="#ff0100" points="136,-420 31,-420 31,-368 136,-368 136,-420"/>
<text text-anchor="middle" x="83.5" y="-408" font-family="Arial" font-size="10.00" fill="#ffffff">runner:316:from_call</text>
<text text-anchor="middle" x="83.5" y="-397" font-family="Arial" font-size="10.00" fill="#ffffff">99.87%</text>
<text text-anchor="middle" x="83.5" y="-386" font-family="Arial" font-size="10.00" fill="#ffffff">(0.00%)</text>
<text text-anchor="middle" x="83.5" y="-375" font-family="Arial" font-size="10.00" fill="#ffffff">12×</text>
</a>
</g>
</g>
<!-- 324 -->
<g id="node12" class="node">
<title>324</title>
<g id="a_node12"><a xlink:title="/usr/local/anaconda3/envs/pytest_plugins_example_venv/lib/python3.10/site&#45;packages/_pytest/runner.py">
<polygon fill="#ff0100" stroke="#ff0100" points="154,-328 45,-328 45,-276 154,-276 154,-328"/>
<text text-anchor="middle" x="99.5" y="-316" font-family="Arial" font-size="10.00" fill="#ffffff">runner:260:&lt;lambda&gt;</text>
<text text-anchor="middle" x="99.5" y="-305" font-family="Arial" font-size="10.00" fill="#ffffff">99.86%</text>
<text text-anchor="middle" x="99.5" y="-294" font-family="Arial" font-size="10.00" fill="#ffffff">(0.00%)</text>
<text text-anchor="middle" x="99.5" y="-283" font-family="Arial" font-size="10.00" fill="#ffffff">12×</text>
</a>
</g>
</g>
<!-- 234&#45;&gt;324 -->
<g id="edge7" class="edge">
<title>234&#45;&gt;324</title>
<path fill="none" stroke="#ff0100" stroke-width="3.99" d="M87.96,-367.93C89.28,-360.48 90.77,-352.12 92.22,-343.95"/>
<polygon fill="#ff0100" stroke="#ff0100" stroke-width="3.99" points="95.65,-344.65 93.95,-334.19 88.76,-343.43 95.65,-344.65"/>
<text text-anchor="middle" x="110.5" y="-351" font-family="Arial" font-size="10.00" fill="#ff0100">99.86%</text>
<text text-anchor="middle" x="110.5" y="-340" font-family="Arial" font-size="10.00" fill="#ff0100">12×</text>
</g>
<!-- 324&#45;&gt;43 -->
<g id="edge11" class="edge">
<title>324&#45;&gt;43</title>
<path fill="none" stroke="#ff0100" stroke-width="3.99" d="M133.25,-275.69C145.52,-266.49 159.61,-255.92 172.8,-246.02"/>
<polygon fill="#ff0100" stroke="#ff0100" stroke-width="3.99" points="174.86,-248.85 180.76,-240.05 170.66,-243.25 174.86,-248.85"/>
<text text-anchor="middle" x="191.5" y="-259" font-family="Arial" font-size="10.00" fill="#ff0100">99.86%</text>
<text text-anchor="middle" x="191.5" y="-248" font-family="Arial" font-size="10.00" fill="#ff0100">12×</text>
</g>
<!-- 287 -->
<g id="node13" class="node">
<title>287</title>
<g id="a_node13"><a xlink:title="/usr/local/anaconda3/envs/pytest_plugins_example_venv/lib/python3.10/site&#45;packages/_pytest/runner.py">
<polygon fill="#ff0000" stroke="#ff0000" points="167,-788 0,-788 0,-736 167,-736 167,-788"/>
<text text-anchor="middle" x="83.5" y="-776" font-family="Arial" font-size="10.00" fill="#ffffff">runner:109:pytest_runtest_protocol</text>
<text text-anchor="middle" x="83.5" y="-765" font-family="Arial" font-size="10.00" fill="#ffffff">100.00%</text>
<text text-anchor="middle" x="83.5" y="-754" font-family="Arial" font-size="10.00" fill="#ffffff">(0.00%)</text>
<text text-anchor="middle" x="83.5" y="-743" font-family="Arial" font-size="10.00" fill="#ffffff">4×</text>
</a>
</g>
</g>
<!-- 287&#45;&gt;16 -->
<g id="edge8" class="edge">
<title>287&#45;&gt;16</title>
<path fill="none" stroke="#ff0000" stroke-width="4" d="M83.5,-735.93C83.5,-728.58 83.5,-720.34 83.5,-712.26"/>
<polygon fill="#ff0000" stroke="#ff0000" stroke-width="4" points="87,-712.3 83.5,-702.3 80,-712.3 87,-712.3"/>
<text text-anchor="middle" x="100.5" y="-719" font-family="Arial" font-size="10.00" fill="#ff0000">99.97%</text>
<text text-anchor="middle" x="100.5" y="-708" font-family="Arial" font-size="10.00" fill="#ff0000">4×</text>
</g>
<!-- 343&#45;&gt;234 -->
<g id="edge13" class="edge">
<title>343&#45;&gt;234</title>
<path fill="none" stroke="#ff0100" stroke-width="3.99" d="M83.5,-459.93C83.5,-452.58 83.5,-444.34 83.5,-436.26"/>
<polygon fill="#ff0100" stroke="#ff0100" stroke-width="3.99" points="87,-436.29 83.5,-426.29 80,-436.29 87,-436.29"/>
<text text-anchor="middle" x="100.5" y="-443" font-family="Arial" font-size="10.00" fill="#ff0100">99.87%</text>
<text text-anchor="middle" x="100.5" y="-432" font-family="Arial" font-size="10.00" fill="#ff0100">12×</text>
</g>
<!-- 325&#45;&gt;43 -->
<g id="edge12" class="edge">
<title>325&#45;&gt;43</title>
<path fill="none" stroke="#ff0300" stroke-width="3.99" d="M219.5,-275.93C219.5,-268.58 219.5,-260.34 219.5,-252.26"/>
<polygon fill="#ff0300" stroke="#ff0300" stroke-width="3.99" points="223,-252.29 219.5,-242.29 216,-252.29 223,-252.29"/>
<text text-anchor="middle" x="236.5" y="-259" font-family="Arial" font-size="10.00" fill="#ff0300">99.69%</text>
<text text-anchor="middle" x="236.5" y="-248" font-family="Arial" font-size="10.00" fill="#ff0300">4×</text>
</g>
</g>
</svg>
